<mxfile host="Electron" modified="2023-07-23T13:39:17.679Z" agent="Mozilla/5.0 (Windows NT 10.0; Win64; x64) AppleWebKit/537.36 (KHTML, like Gecko) draw.io/21.6.5 Chrome/114.0.5735.243 Electron/25.3.1 Safari/537.36" etag="FfouENUllae-Axdpnv4l" version="21.6.5" type="device">
  <diagram id="07fea595-8f29-1299-0266-81d95cde20df" name="Page-1">
    <mxGraphModel dx="792" dy="-1294" grid="1" gridSize="10" guides="1" tooltips="1" connect="1" arrows="1" fold="1" page="1" pageScale="1" pageWidth="1169" pageHeight="827" background="none" math="0" shadow="0">
      <root>
        <mxCell id="0" />
        <mxCell id="1" parent="0" />
        <mxCell id="644" value="&lt;font color=&quot;#ffffff&quot;&gt;&lt;span style=&quot;font-size: 30px;&quot;&gt;&lt;b&gt;Software Developement&lt;br&gt;Cycle&lt;br&gt;&lt;/b&gt;&lt;/span&gt;&lt;/font&gt;" style="shape=hexagon;perimeter=hexagonPerimeter2;whiteSpace=wrap;html=1;shadow=0;labelBackgroundColor=none;strokeColor=#23445D;fillColor=#23445D;gradientColor=none;fontFamily=Helvetica;fontSize=23;fontColor=#23445d;align=center;strokeWidth=3;" parent="1" vertex="1">
          <mxGeometry x="428.57894736842115" y="2764.7982456140344" width="311.84210526315786" height="259.86842105263156" as="geometry" />
        </mxCell>
        <mxCell id="645" value="" style="triangle;whiteSpace=wrap;html=1;shadow=0;labelBackgroundColor=none;strokeColor=none;fillColor=#FFFFFF;fontFamily=Helvetica;fontSize=17;fontColor=#23445d;align=center;rotation=90;gradientColor=none;flipV=1;flipH=1;opacity=20;" parent="1" vertex="1">
          <mxGeometry x="309.5" y="2782.6666666666665" width="72" height="152" as="geometry" />
        </mxCell>
        <mxCell id="646" value="PLANNING" style="shape=hexagon;perimeter=hexagonPerimeter2;whiteSpace=wrap;html=1;shadow=0;labelBackgroundColor=none;strokeColor=#6c8ebf;fillColor=#dae8fc;fontFamily=Helvetica;fontSize=23;align=center;strokeWidth=3;" parent="1" vertex="1">
          <mxGeometry x="428.57894736842115" y="2504.6666666666665" width="311.84210526315786" height="259.86842105263156" as="geometry" />
        </mxCell>
        <mxCell id="647" value="ANALYSIS" style="shape=hexagon;perimeter=hexagonPerimeter2;whiteSpace=wrap;html=1;shadow=0;labelBackgroundColor=none;strokeColor=#82b366;fillColor=#d5e8d4;fontFamily=Helvetica;fontSize=23;align=center;strokeWidth=3;" parent="1" vertex="1">
          <mxGeometry x="662.6578947368422" y="2634.1995614035086" width="311.84210526315786" height="259.86842105263156" as="geometry" />
        </mxCell>
        <mxCell id="648" value="&lt;font style=&quot;font-size: 23px&quot;&gt;DESIGN&lt;/font&gt;" style="shape=hexagon;perimeter=hexagonPerimeter2;whiteSpace=wrap;html=1;shadow=0;labelBackgroundColor=none;strokeColor=#d79b00;fillColor=#ffe6cc;fontFamily=Helvetica;fontSize=23;align=center;strokeWidth=3;" parent="1" vertex="1">
          <mxGeometry x="662.6578947368422" y="2894.2653508771928" width="311.84210526315786" height="259.86842105263156" as="geometry" />
        </mxCell>
        <mxCell id="649" value="&lt;font style=&quot;font-size: 23px&quot;&gt;IMPLEMENTATION&lt;/font&gt;" style="shape=hexagon;perimeter=hexagonPerimeter2;whiteSpace=wrap;html=1;shadow=0;labelBackgroundColor=none;strokeColor=#d6b656;fillColor=#fff2cc;fontFamily=Helvetica;fontSize=23;align=center;strokeWidth=3;" parent="1" vertex="1">
          <mxGeometry x="428.57894736842115" y="3024.7982456140344" width="311.84210526315786" height="259.86842105263156" as="geometry" />
        </mxCell>
        <mxCell id="650" value="&lt;font style=&quot;font-size: 23px&quot;&gt;TESTING and&lt;br&gt;INTEGRATION&lt;br&gt;&lt;/font&gt;" style="shape=hexagon;perimeter=hexagonPerimeter2;whiteSpace=wrap;html=1;shadow=0;labelBackgroundColor=none;strokeColor=#b85450;fillColor=#f8cecc;fontFamily=Helvetica;fontSize=23;align=center;strokeWidth=3;" parent="1" vertex="1">
          <mxGeometry x="194.5" y="2894.2653508771928" width="311.84210526315786" height="259.86842105263156" as="geometry" />
        </mxCell>
        <mxCell id="651" value="&lt;font style=&quot;font-size: 23px;&quot;&gt;MAINTENANCE&lt;/font&gt;" style="shape=hexagon;perimeter=hexagonPerimeter2;whiteSpace=wrap;html=1;shadow=0;labelBackgroundColor=none;strokeColor=#9673a6;fillColor=#e1d5e7;fontFamily=Helvetica;fontSize=23;align=center;strokeWidth=3;" parent="1" vertex="1">
          <mxGeometry x="194.5000000000001" y="2634.1995614035086" width="311.84210526315786" height="259.86842105263156" as="geometry" />
        </mxCell>
        <mxCell id="652" value="" style="triangle;whiteSpace=wrap;html=1;shadow=0;labelBackgroundColor=none;strokeColor=none;fillColor=#23445D;fontFamily=Helvetica;fontSize=17;fontColor=#23445d;align=center;rotation=31;gradientColor=none;strokeWidth=3;" parent="1" vertex="1">
          <mxGeometry x="700" y="2668.6666666666665" width="35" height="73" as="geometry" />
        </mxCell>
        <mxCell id="653" value="" style="triangle;whiteSpace=wrap;html=1;shadow=0;labelBackgroundColor=none;strokeColor=none;fillColor=#23445D;fontFamily=Helvetica;fontSize=17;fontColor=#23445d;align=center;rotation=31;gradientColor=none;flipH=1;strokeWidth=3;" parent="1" vertex="1">
          <mxGeometry x="434.5" y="3044.666666666666" width="35" height="73" as="geometry" />
        </mxCell>
        <mxCell id="654" value="" style="triangle;whiteSpace=wrap;html=1;shadow=0;labelBackgroundColor=none;strokeColor=none;fillColor=#23445D;fontFamily=Helvetica;fontSize=17;fontColor=#23445d;align=center;rotation=329;gradientColor=none;strokeWidth=3;" parent="1" vertex="1">
          <mxGeometry x="464.5" y="2653.6666666666665" width="35" height="73" as="geometry" />
        </mxCell>
        <mxCell id="655" value="" style="triangle;whiteSpace=wrap;html=1;shadow=0;labelBackgroundColor=none;strokeColor=none;fillColor=#23445D;fontFamily=Helvetica;fontSize=17;fontColor=#23445d;align=center;rotation=329;gradientColor=none;flipH=1;strokeWidth=3;" parent="1" vertex="1">
          <mxGeometry x="667.5" y="3059.666666666666" width="35" height="73" as="geometry" />
        </mxCell>
        <mxCell id="656" value="" style="triangle;whiteSpace=wrap;html=1;shadow=0;labelBackgroundColor=none;strokeColor=none;fillColor=#23445D;fontFamily=Helvetica;fontSize=17;fontColor=#23445d;align=center;rotation=90;gradientColor=none;strokeWidth=3;" parent="1" vertex="1">
          <mxGeometry x="801.078947368421" y="2874.1666666666665" width="35" height="73" as="geometry" />
        </mxCell>
        <mxCell id="657" value="" style="triangle;whiteSpace=wrap;html=1;shadow=0;labelBackgroundColor=none;strokeColor=none;fillColor=#23445D;fontFamily=Helvetica;fontSize=17;fontColor=#23445d;align=center;rotation=90;gradientColor=none;flipH=1;strokeWidth=3;" parent="1" vertex="1">
          <mxGeometry x="332.92105263157896" y="2840.1666666666665" width="35" height="73" as="geometry" />
        </mxCell>
      </root>
    </mxGraphModel>
  </diagram>
</mxfile>
